<svg width="29" height="28" viewBox="0 0 29 28" fill="none" xmlns="http://www.w3.org/2000/svg">
<path fill-rule="evenodd" clip-rule="evenodd" d="M17.9055 3.5C18.0642 4.56342 17.6285 5.60408 17.0539 6.34083C16.4385 7.13067 15.3785 7.742 14.3548 7.70992C14.1681 6.692 14.6482 5.64492 15.2298 4.93908C15.8709 4.16092 16.9675 3.56417 17.9055 3.5ZM20.8216 19.1724C21.3513 18.3674 21.5479 17.9614 21.9591 17.0503C18.9736 15.9215 18.4935 11.7023 21.4487 10.0823C20.5463 8.95825 19.2805 8.30784 18.0858 8.30784C17.2233 8.30784 16.6326 8.5313 16.0957 8.7344C15.6485 8.90356 15.2387 9.05859 14.7404 9.05859C14.2019 9.05859 13.7249 8.88854 13.2252 8.71043C12.6758 8.51459 12.0991 8.309 11.3833 8.309C10.0405 8.309 8.61246 9.12392 7.70713 10.5181C6.43371 12.4787 6.64954 16.1677 8.71454 19.3107C9.45304 20.4353 10.4389 21.6994 11.7292 21.7111C12.2635 21.7163 12.6192 21.5578 13.0044 21.3862C13.4454 21.1897 13.925 20.9761 14.7555 20.9714C15.5912 20.9667 16.063 21.1827 16.4984 21.382C16.8735 21.5537 17.2216 21.713 17.7521 21.7082C19.0425 21.6965 20.0837 20.2965 20.8216 19.1724Z" fill="white"/>
</svg>
