<svg width="20" height="20" viewBox="0 0 20 20" fill="none" xmlns="http://www.w3.org/2000/svg">
<path d="M0 2.79999V3.19999V17.2H20V2.79999H0ZM0.8 3.59999H19.2V4.60233C19.0303 4.75025 11.9255 10.9424 11.3344 11.457C10.8155 11.9087 10.2869 12.0008 10 12.0008C9.71336 12.0008 9.18456 11.9088 8.66562 11.457C8.07448 10.9424 0.969715 4.75025 0.8 4.60233V3.59999ZM0.8 5.66014C1.77519 6.51021 7.58706 11.5768 8.14141 12.0594C8.82167 12.6516 9.54184 12.7992 10 12.7992C10.4579 12.7992 11.1783 12.6517 11.8586 12.0594C12.4129 11.5768 18.2248 6.51092 19.2 5.66093V16.4H0.8V5.66014Z" fill="black"/>
</svg>
