<svg width="430" height="92" viewBox="0 0 430 92" fill="none" xmlns="http://www.w3.org/2000/svg">
<path d="M45.354 62.2112L75.268 16.5579H15.0566L27.0036 0H81.0394C88.4791 0 94.5406 6.05121 94.5406 13.5012C94.5406 16.2056 93.7428 18.8167 92.23 21.0652L64.3987 62.2215H45.3747L45.354 62.2112Z" fill="#82AA47"/>
<path d="M13.5012 92C6.06155 92 0 85.9488 0 78.4988C0 75.7944 0.797856 73.173 2.31065 70.9349L30.1419 29.7785H49.3524L19.2519 75.4318H67.5267L79.4736 91.9897H13.4908L13.5012 92Z" fill="#82AA47"/>
<path d="M163.88 71.3299V82.6344H110.072V71.3299L149.011 20.6616H111.844V9.35712H163.766V20.6616L124.827 71.3299H163.87H163.88Z" fill="black"/>
<path d="M227.013 25.0531V82.6326H215.18V73.0067C210.994 79.607 204.082 83.8967 195.078 83.8967C179.691 83.8967 168.49 71.442 168.49 53.848C168.49 36.254 179.898 23.7993 194.975 23.7993C204.082 23.7993 210.994 28.2963 215.18 34.8966V25.0531H227.013ZM215.283 53.8377C215.283 42.844 207.636 35.1038 197.596 35.1038C187.556 35.1038 180.427 42.8544 180.427 53.8377C180.427 64.821 187.649 72.5715 197.596 72.5715C207.543 72.5715 215.283 64.9246 215.283 53.8377Z" fill="black"/>
<path d="M295.884 53.8525C295.884 71.4361 284.683 83.9012 269.296 83.9012C260.292 83.9012 253.38 79.5079 249.194 73.0111V82.6371H237.361V2.03406H249.194V34.9011C253.38 28.3111 260.292 23.8038 269.399 23.8038C284.476 23.8038 295.884 36.2585 295.884 53.8525ZM283.947 53.8525C283.947 42.8588 276.829 35.1187 266.778 35.1187C256.727 35.1187 249.091 42.8692 249.091 53.8525C249.091 64.8358 256.738 72.5863 266.778 72.5863C276.818 72.5863 283.947 64.9394 283.947 53.8525Z" fill="black"/>
<path d="M362.882 53.8525C362.882 71.4361 351.681 83.9012 336.294 83.9012C327.29 83.9012 320.378 79.5079 316.192 73.0111V82.6371H304.359V2.03406H316.192V34.9011C320.378 28.3111 327.29 23.8038 336.397 23.8038C351.474 23.8038 362.882 36.2585 362.882 53.8525ZM350.945 53.8525C350.945 42.8588 343.827 35.1187 333.776 35.1187C323.725 35.1187 316.089 42.8692 316.089 53.8525C316.089 64.8358 323.736 72.5863 333.776 72.5863C343.816 72.5863 350.945 64.9394 350.945 53.8525Z" fill="black"/>
<path d="M429.158 53.848C429.158 71.1208 416.072 83.8967 399.327 83.8967C382.583 83.8967 369.496 71.0172 369.496 53.848C369.496 36.6788 382.894 23.7993 399.327 23.7993C415.761 23.7993 429.158 36.4612 429.158 53.848ZM381.422 53.848C381.422 64.9453 389.276 72.5818 399.327 72.5818C409.378 72.5818 417.232 64.9349 417.232 53.848C417.232 42.7611 409.274 35.1142 399.327 35.1142C389.38 35.1142 381.422 42.7611 381.422 53.848Z" fill="black"/>
</svg>
