<svg width="20" height="20" viewBox="0 0 20 20" fill="none" xmlns="http://www.w3.org/2000/svg">
<path d="M1.02832 1L8.77409 6.88453L7.51347 3.49429L1.02832 1Z" fill="#E27625"/>
<path d="M0 14.4694L1.49657 18.9592L6.01722 17.4626L3.85567 14.437L0 14.4694Z" fill="#E27625"/>
<path d="M5.64377 8.67013L4.45898 10.9773L9.01106 11.1021L8.57456 5.98877L5.64377 8.67013Z" fill="#E27625"/>
<path d="M6.01855 17.4624L8.52831 16.4647L6.26798 14.4692L6.01855 17.4624Z" fill="#E27625"/>
<path d="M6.01855 17.4626L8.41906 18.8968L8.52831 16.4648L6.01855 17.4626Z" fill="#D7CCC8"/>
<path d="M6.01746 17.4624L6.26689 14.4692H3.83496L6.01746 17.4624Z" fill="#CC6228"/>
<path d="M8.82316 10.9771L8.43555 13.3985L8.95236 16.0594L9.0681 12.5524L8.82316 10.9771Z" fill="#FB8C00"/>
<path d="M0.0322266 3.99315L1.5288 10.4783L5.68429 9.08399L8.51281 6.48744L1.02994 1L0.0322266 3.99315Z" fill="#763E1A"/>
<path d="M8.51201 13.0973L4.52115 10.9771L5.68299 9.08398L1.5275 10.4783L0 14.4692H6.26715L8.52748 16.4646L8.9525 16.0595L8.51201 13.0973Z" fill="#FB8C00"/>
<path d="M6.26749 12.7231L8.51235 13.4713L8.82413 10.9771H4.52148L6.26749 12.7231Z" fill="#CC6228"/>
<path d="M8.51146 13.4717L6.2666 12.7234L7.82553 11.9751L8.51146 13.4717Z" fill="#212121"/>
<path d="M12.4857 3.49429L11.2246 6.88453L18.9709 1L12.4857 3.49429Z" fill="#E27625"/>
<path d="M16.1441 14.437L13.999 17.4626L18.5032 18.9592L19.9998 14.4694L16.1441 14.437Z" fill="#E27625"/>
<path d="M11.3807 6.11328L11.1562 11.1453L15.5417 10.9771L14.4981 8.98171L11.3807 6.11328Z" fill="#E27625"/>
<path d="M13.7321 14.4692L11.4883 16.4647L13.998 17.4624L13.7321 14.4692Z" fill="#E27625"/>
<path d="M11.4883 16.4648L11.5811 18.8968L13.9985 17.4626L11.4883 16.4648Z" fill="#D7CCC8"/>
<path d="M16.1653 14.4692H13.7334L13.9993 17.4624L16.1653 14.4692Z" fill="#CC6228"/>
<path d="M11.6761 18.6831V17.9613H8.32577V18.6831L6.01855 17.4624L8.51284 19.4578H11.489L14.0003 17.4624L11.6761 18.6831Z" fill="#BCAAA4"/>
<path d="M18.9718 1L11.5059 6.48744L14.3179 9.08399L18.4894 10.4783L19.9695 3.99315L18.9718 1Z" fill="#763E1A"/>
<path d="M18.4879 10.4783L14.3159 9.08398L15.4778 10.9771L11.5408 13.2599L11.1751 10.9771L10.9307 12.5525L11.0464 16.0595L11.0469 16.056L11.0464 16.0595L11.4879 16.4646L13.7318 14.4692H19.9989L18.4879 10.4783Z" fill="#FB8C00"/>
<path d="M7.51367 3.49414L8.51139 6.48729L8.84363 11.1451L8.9439 12.5599L8.95188 16.0594H9.99898V16.0369L9.99998 16.0594H11.0471L11.0551 12.5599L11.1553 11.1451L11.5045 6.48729L12.5023 3.49414H7.51367Z" fill="#FB8C00"/>
<path d="M11.5064 16.4647L11.0375 15.9658H8.96521L8.51324 16.4647L8.32617 17.9613H11.6765L11.5064 16.4647Z" fill="#212121"/>
<path d="M15.4784 10.9771H11.1758L11.4876 13.4713L13.7324 12.7231L15.4784 10.9771Z" fill="#CC6228"/>
<path d="M12.1907 11.9751L13.7331 12.7234L11.4883 13.4717L12.1907 11.9751Z" fill="#212121"/>
</svg>
