<svg width="20" height="20" viewBox="0 0 20 20" fill="none" xmlns="http://www.w3.org/2000/svg">
<path d="M6.40078 0.399994C5.52185 0.399994 4.80078 1.12106 4.80078 1.99999V18C4.80078 18.8789 5.52185 19.6 6.40078 19.6H13.6008C14.4797 19.6 15.2008 18.8789 15.2008 18V1.99999C15.2008 1.12106 14.4797 0.399994 13.6008 0.399994H6.40078ZM6.40078 1.19999H13.6008C14.0474 1.19999 14.4008 1.55333 14.4008 1.99999V18C14.4008 18.4467 14.0474 18.8 13.6008 18.8H6.40078C5.95411 18.8 5.60078 18.4467 5.60078 18V1.99999C5.60078 1.55333 5.95411 1.19999 6.40078 1.19999ZM9.00078 1.99999C8.66958 1.99999 8.40078 2.26879 8.40078 2.59999C8.40078 2.93119 8.66958 3.19999 9.00078 3.19999H11.0008C11.332 3.19999 11.6008 2.93119 11.6008 2.59999C11.6008 2.26879 11.332 1.99999 11.0008 1.99999H9.00078Z" fill="black"/>
</svg>
