<svg width="24" height="24" viewBox="0 0 24 24" fill="none" xmlns="http://www.w3.org/2000/svg">
<path d="M12 4.5C11.1709 4.5 10.5 5.1709 10.5 6C10.5 6.8291 11.1709 7.5 12 7.5C12.8291 7.5 13.5 6.8291 13.5 6C13.5 5.1709 12.8291 4.5 12 4.5ZM12 10.5C11.1709 10.5 10.5 11.1709 10.5 12C10.5 12.8291 11.1709 13.5 12 13.5C12.8291 13.5 13.5 12.8291 13.5 12C13.5 11.1709 12.8291 10.5 12 10.5ZM12 16.5C11.1709 16.5 10.5 17.1709 10.5 18C10.5 18.8291 11.1709 19.5 12 19.5C12.8291 19.5 13.5 18.8291 13.5 18C13.5 17.1709 12.8291 16.5 12 16.5Z" fill="#312F2F"/>
</svg>
