<svg width="383" height="580" viewBox="0 0 383 580" fill="none" xmlns="http://www.w3.org/2000/svg">
<path d="M44.0234 54.0962L70.0926 14.398H17.6201L28.0315 0H75.1222C81.6057 0 86.8882 5.26188 86.8882 11.7401C86.8882 14.0917 86.1928 16.3622 84.8745 18.3174L60.6203 54.1052H44.0415L44.0234 54.0962Z" fill="white"/>
<path d="M16.2659 80C9.78246 80 4.5 74.7382 4.5 68.26C4.5 65.9083 5.19531 63.6288 6.51367 61.6826L30.7678 25.8948H47.5092L21.2775 65.593H63.3476L73.759 79.991H16.2569L16.2659 80Z" fill="white"/>
<path d="M147.317 62.0252V71.8551H100.425V62.0252L134.359 17.9662H101.969V8.13629H147.218V17.9662L113.283 62.0252H147.308H147.317Z" fill="white"/>
<path d="M202.335 21.7865V71.8551H192.023V63.4848C188.374 69.2242 182.352 72.9544 174.505 72.9544C161.095 72.9544 151.334 62.1243 151.334 46.8253C151.334 31.5263 161.276 20.6962 174.414 20.6962C182.352 20.6962 188.374 24.6066 192.023 30.346V21.7865H202.335ZM192.113 46.8163C192.113 37.2567 185.449 30.5262 176.699 30.5262C167.949 30.5262 161.736 37.2657 161.736 46.8163C161.736 56.3669 168.03 63.1064 176.699 63.1064C185.367 63.1064 192.113 56.457 192.113 46.8163Z" fill="white"/>
<path d="M262.355 46.8253C262.355 62.1153 252.594 72.9543 239.185 72.9543C231.338 72.9543 225.315 69.1341 221.667 63.4848V71.8551H211.354V1.76617H221.667V30.346C225.315 24.6156 231.338 20.6962 239.275 20.6962C252.413 20.6962 262.355 31.5263 262.355 46.8253ZM251.953 46.8253C251.953 37.2656 245.749 30.5352 236.99 30.5352C228.231 30.5352 221.576 37.2747 221.576 46.8253C221.576 56.3759 228.24 63.1154 236.99 63.1154C245.74 63.1154 251.953 56.466 251.953 46.8253Z" fill="white"/>
<path d="M320.742 46.8253C320.742 62.1153 310.981 72.9543 297.571 72.9543C289.724 72.9543 283.701 69.1341 280.053 63.4848V71.8551H269.741V1.76617H280.053V30.346C283.701 24.6156 289.724 20.6962 297.662 20.6962C310.8 20.6962 320.742 31.5263 320.742 46.8253ZM310.339 46.8253C310.339 37.2656 304.136 30.5352 295.377 30.5352C286.618 30.5352 279.963 37.2747 279.963 46.8253C279.963 56.3759 286.627 63.1154 295.377 63.1154C304.127 63.1154 310.339 56.466 310.339 46.8253Z" fill="white"/>
<path d="M378.5 46.8253C378.5 61.845 367.095 72.9544 352.503 72.9544C337.911 72.9544 326.506 61.7549 326.506 46.8253C326.506 31.8957 338.181 20.6962 352.503 20.6962C366.824 20.6962 378.5 31.7065 378.5 46.8253ZM336.899 46.8253C336.899 56.475 343.744 63.1154 352.503 63.1154C361.262 63.1154 368.106 56.466 368.106 46.8253C368.106 37.1846 361.171 30.5352 352.503 30.5352C343.834 30.5352 336.899 37.1846 336.899 46.8253Z" fill="white"/>
<g clip-path="url(#clip0_1205_19190)">
<path d="M97.1588 577.073C98.0693 566.814 91.4148 557.404 81.43 554.83C81.43 554.83 68.0683 546.889 78.8561 535.804L37.5525 500.192L0 541.247L16.1249 555.974L38.8781 576.777L96.7623 577.073" fill="#222433"/>
<path d="M305.41 503.733C312.19 510.154 321.262 512.401 331.318 511.46C345.119 510.169 356.509 508.169 356.509 508.169C366.953 505 378.161 509.842 383 519.615L330.53 551.207L302.559 568.064L282.752 580L260.729 543.612L305.41 503.733Z" fill="#222433"/>
<path d="M119.829 212.952C109.819 212.952 100.977 196.132 114.286 188.919C122.875 184.263 130.274 189.045 133.32 198.608L138.978 182.09L167.268 186.437L168.769 198.736C168.413 205.291 167.268 218.168 166.397 225.123C165.546 231.926 158.282 235.57 156.387 238.598C145.443 244.651 132.563 242.154 124.038 232.925C116.296 224.543 119.699 215.239 119.829 212.952Z" fill="white"/>
<path d="M232.353 292.745C231.075 296.963 228.615 301.527 225.014 304.606L178.445 344.431C177.843 344.945 177.218 345.427 176.573 345.875L154.866 322.5L144.874 330.833L134.626 319.882L140.284 316.84L169.603 289.054L204.696 265.548" fill="#222433"/>
<path d="M159.435 377.26C159.412 377.26 159.39 377.26 159.368 377.258C158.876 377.234 158.44 376.934 158.24 376.483L133.433 320.41C133.157 319.787 133.408 319.057 134.008 318.734L139.513 315.774L168.706 288.108C168.759 288.058 168.816 288.012 168.877 287.971L203.97 264.465C204.569 264.064 205.38 264.224 205.782 264.822C206.184 265.42 206.024 266.23 205.425 266.632L170.423 290.076L141.184 317.787C141.1 317.866 141.006 317.934 140.904 317.989L136.309 320.46L159.581 373.063L175.439 345.231C175.535 345.062 175.668 344.917 175.828 344.806C176.436 344.383 177.032 343.923 177.598 343.441L224.165 303.617C227.193 301.027 229.723 296.927 231.104 292.368C231.313 291.679 232.041 291.289 232.732 291.497C233.422 291.706 233.812 292.434 233.603 293.124C232.081 298.147 229.26 302.694 225.863 305.598L179.295 345.423C178.739 345.897 178.158 346.351 177.564 346.774L160.569 376.602C160.336 377.01 159.902 377.26 159.435 377.26Z" fill="#222433"/>
<path d="M154.033 323.333L144.874 328.212L160.694 372.5V351.667L155.698 323.333H154.033Z" fill="white"/>
<path d="M168.399 448.269L202.47 486.723L215.04 500.912L228.292 515.871L256.633 547.856L311.801 498.616L299.832 485.102L281.444 464.342L248.916 427.616L238.223 415.541L195.175 366.935L176.779 346.17L155.658 322.322" fill="white"/>
<path d="M256.633 549.16C256.607 549.16 256.582 549.16 256.556 549.158C256.209 549.138 255.885 548.981 255.655 548.721L167.421 449.133C166.943 448.594 166.993 447.77 167.533 447.292C168.073 446.815 168.898 446.866 169.376 447.405L256.74 546.011L309.962 498.508L154.68 323.186C154.202 322.646 154.253 321.822 154.793 321.345C155.333 320.868 156.158 320.919 156.636 321.458L312.779 497.752C313.255 498.29 313.207 499.11 312.671 499.589L257.503 548.829C257.262 549.043 256.952 549.16 256.633 549.16Z" fill="#222433"/>
<path d="M166.133 226.118C166.02 226.118 165.906 226.103 165.792 226.073C165.096 225.885 164.684 225.17 164.871 224.474C165.73 221.292 165.882 218.044 165.325 214.82C165.202 214.11 165.679 213.436 166.389 213.313C167.1 213.191 167.775 213.667 167.898 214.376C168.521 217.976 168.351 221.602 167.393 225.153C167.236 225.735 166.708 226.118 166.133 226.118Z" fill="#222433"/>
<path d="M168.276 199.896C168.189 199.896 168.099 199.886 168.01 199.868C167.304 199.722 166.85 199.031 166.997 198.326C167.627 195.297 167.623 192.222 166.986 189.186C166.838 188.481 167.29 187.79 167.996 187.642C168.703 187.494 169.394 187.946 169.542 188.65C170.253 192.04 170.258 195.474 169.554 198.856C169.426 199.472 168.883 199.896 168.276 199.896Z" fill="#222433"/>
<path d="M140.419 198.426C140.317 198.426 140.212 198.414 140.109 198.389L132.999 196.656C132.298 196.485 131.869 195.78 132.039 195.08C132.21 194.381 132.917 193.953 133.617 194.122L140.727 195.855C141.428 196.026 141.857 196.731 141.686 197.431C141.541 198.026 141.007 198.426 140.419 198.426Z" fill="#222433"/>
<path d="M122.255 186.399L125.844 171.706C127.63 164.396 135.008 159.915 142.328 161.694L168.432 168.055C171.07 168.68 172.701 171.323 172.075 173.958C172.073 173.968 172.07 173.978 172.068 173.988L168.344 189.234L143.89 183.979C141.274 183.412 138.692 185.064 138.114 187.673L135.505 199.425C135.171 200.928 134.342 202.207 133.218 203.115" fill="white"/>
<path d="M133.22 204.419C132.839 204.419 132.462 204.254 132.204 203.935C131.75 203.376 131.837 202.555 132.398 202.102C133.322 201.354 133.973 200.303 134.231 199.143L136.839 187.391C137.571 184.09 140.858 181.986 144.167 182.705L167.376 187.692L170.799 173.679C171.264 171.726 170.064 169.782 168.13 169.323L142.019 162.961C135.413 161.354 128.725 165.416 127.113 172.014L123.524 186.708C123.352 187.407 122.646 187.835 121.946 187.666C121.245 187.495 120.816 186.79 120.987 186.09L124.576 171.397C126.529 163.402 134.631 158.482 142.637 160.427L168.742 166.788C172.068 167.577 174.136 170.93 173.345 174.26L169.612 189.543C169.444 190.23 168.761 190.657 168.069 190.509L143.615 185.254C141.704 184.839 139.81 186.052 139.389 187.955L136.78 199.708C136.395 201.442 135.422 203.012 134.04 204.129C133.799 204.324 133.508 204.419 133.22 204.419Z" fill="#222433"/>
<path d="M146.916 209.131C151.206 209.131 154.683 205.658 154.683 201.373C154.683 197.089 151.206 193.616 146.916 193.616C142.626 193.616 139.148 197.089 139.148 201.373C139.148 205.658 142.626 209.131 146.916 209.131Z" fill="white"/>
<path d="M146.915 210.436C146.206 210.436 145.485 210.352 144.765 210.177C139.905 208.993 136.916 204.08 138.101 199.226C139.287 194.372 144.207 191.387 149.066 192.57C151.42 193.144 153.41 194.599 154.669 196.667C155.927 198.736 156.304 201.17 155.73 203.521C154.72 207.657 151 210.436 146.915 210.436ZM146.916 194.919C144.007 194.919 141.358 196.899 140.639 199.844C139.794 203.301 141.923 206.8 145.384 207.643C148.844 208.487 152.348 206.361 153.193 202.904C154.037 199.447 151.909 195.948 148.447 195.104C147.935 194.979 147.422 194.919 146.916 194.919Z" fill="#222433"/>
<path d="M166.39 213.877C170.68 213.877 174.158 210.403 174.158 206.119C174.158 201.834 170.68 198.361 166.39 198.361C162.101 198.361 158.623 201.834 158.623 206.119C158.623 210.403 162.101 213.877 166.39 213.877Z" fill="white"/>
<path d="M166.407 215.184C165.685 215.184 164.959 215.097 164.24 214.922C161.885 214.348 159.895 212.893 158.637 210.825C157.378 208.757 157.001 206.322 157.576 203.971C158.762 199.117 163.682 196.132 168.541 197.315C173.401 198.499 176.39 203.412 175.205 208.266C174.63 210.617 173.173 212.605 171.102 213.862C169.663 214.736 168.048 215.184 166.407 215.184ZM166.39 199.665C163.481 199.665 160.832 201.644 160.113 204.589C159.703 206.264 159.972 207.998 160.868 209.47C161.765 210.943 163.182 211.98 164.858 212.388C166.535 212.797 168.271 212.529 169.745 211.634C171.22 210.738 172.258 209.323 172.667 207.649C173.076 205.974 172.807 204.24 171.911 202.767C171.015 201.294 169.598 200.258 167.921 199.85C167.409 199.724 166.895 199.665 166.39 199.665Z" fill="#222433"/>
<path d="M157.849 215.596C157.721 215.596 157.592 215.577 157.467 215.539L151.006 213.566C150.317 213.355 149.928 212.626 150.139 211.938C150.35 211.249 151.081 210.861 151.77 211.072L156.695 212.576L157.327 205.688C157.393 204.971 158.027 204.44 158.746 204.509C159.465 204.574 159.993 205.209 159.927 205.926L159.149 214.411C159.113 214.802 158.903 215.155 158.576 215.374C158.359 215.521 158.105 215.596 157.849 215.596Z" fill="#222433"/>
<path d="M159.461 203.066C159.358 203.066 159.254 203.054 159.15 203.029L154.336 201.856C153.636 201.685 153.207 200.979 153.377 200.28C153.548 199.58 154.255 199.151 154.955 199.322L159.769 200.495C160.47 200.666 160.899 201.371 160.728 202.071C160.582 202.667 160.048 203.066 159.461 203.066Z" fill="#222433"/>
<path d="M232.641 271.615C236.653 265.571 233.767 267.075 235.545 259.034L238.838 241.23C240.982 229.844 231.894 236.669 229.951 241.012L222.893 254.993C215.031 260.695 210.925 262.871 203.537 269.916C194.505 278.524 205.133 294.291 214.034 297.098C220.831 299.221 228.241 297.085 232.859 291.671C234.792 289.35 236.256 287.061 237.925 285.024L237.973 284.967C239.249 283.327 240.799 281.919 242.553 280.803C243.486 280.231 244.478 279.761 245.511 279.398C247.86 278.568 250.785 278.111 254.635 278.141C261.061 278.203 270.676 279.284 270.524 273.211C270.474 271.141 267.731 269.668 263.99 268.525L250.914 266.52L266.972 261.239C273.038 259.108 277.491 256.613 276.933 253.65C275.927 248.311 264.46 251.655 254.782 253.83C264.244 249.917 274.606 245.201 273.035 240.186C271.495 235.277 268.562 234.765 256.64 239.164L237.832 246.662" fill="white"/>
<path d="M219.347 299.215C217.446 299.215 215.525 298.93 213.645 298.343C207.37 296.364 200.905 288.895 199.232 281.691C198.053 276.617 199.23 272.219 202.636 268.974C208.164 263.702 211.896 261.108 216.623 257.825C218.251 256.693 219.932 255.525 221.87 254.124L228.772 240.451C230.11 237.499 234.831 232.804 238.101 233.824C240.269 234.501 240.949 237.074 240.121 241.472L239.547 244.577L256.157 237.955C264.595 234.841 268.496 234.193 271.096 235.47C273.012 236.41 273.805 238.276 274.282 239.797C275.48 243.624 271.797 246.956 266.223 250.007C270.531 249.28 274.168 249.161 276.322 250.563C277.349 251.232 277.987 252.19 278.217 253.411C279.05 257.835 272.446 260.7 267.406 262.47L256.497 266.058L264.189 267.237C264.251 267.247 264.312 267.261 264.372 267.279C267.536 268.246 271.751 269.909 271.83 273.181C271.87 274.77 271.37 276.094 270.345 277.115C267.667 279.785 262.006 279.633 257.012 279.498C256.185 279.476 255.381 279.454 254.622 279.446C251.118 279.413 248.276 279.805 245.946 280.628C244.999 280.96 244.088 281.393 243.235 281.915C241.622 282.942 240.192 284.242 239.004 285.768C238.994 285.781 238.984 285.794 238.973 285.806L238.925 285.863C238.179 286.773 237.465 287.752 236.708 288.788C235.829 289.991 234.92 291.236 233.863 292.505C230.167 296.838 224.838 299.215 219.347 299.215ZM237.08 236.279C235.667 236.279 232.259 239.049 231.142 241.544C231.134 241.563 231.125 241.581 231.116 241.599L224.058 255.58C223.964 255.766 223.828 255.926 223.659 256.048C221.592 257.548 219.824 258.777 218.113 259.965C213.48 263.184 209.82 265.727 204.438 270.86C201.026 274.112 201.106 278.224 201.775 281.101C203.237 287.397 209.031 294.153 214.427 295.855C220.731 297.824 227.578 295.851 231.864 290.825C232.858 289.631 233.742 288.421 234.598 287.25C235.376 286.184 236.112 285.177 236.914 284.198L236.956 284.148C238.326 282.394 239.972 280.898 241.85 279.704C242.88 279.073 243.96 278.561 245.078 278.168C247.695 277.243 250.825 276.807 254.645 276.838C255.42 276.846 256.239 276.868 257.082 276.891C261.329 277.005 266.615 277.147 268.5 275.269C269.012 274.758 269.241 274.115 269.219 273.244C269.206 272.715 268.64 271.325 263.697 269.8L250.715 267.81C250.118 267.718 249.662 267.23 249.612 266.629C249.562 266.027 249.931 265.471 250.504 265.282L266.563 260.001C274.913 257.068 275.841 254.914 275.648 253.893C275.551 253.377 275.318 253.025 274.893 252.748C272.341 251.086 264.851 252.832 258.243 254.372C257.174 254.621 256.11 254.869 255.067 255.104C254.406 255.253 253.741 254.871 253.536 254.225C253.331 253.58 253.654 252.885 254.281 252.626C260.396 250.097 273.121 244.835 271.787 240.576C271.304 239.035 270.752 238.208 269.943 237.811C268.156 236.934 264.432 237.681 257.092 240.389L238.985 247.608L236.827 259.271C236.825 259.286 236.821 259.3 236.818 259.315C236.123 262.457 236.175 264.007 236.217 265.252C236.288 267.395 236.212 268.592 233.727 272.336C233.329 272.936 232.519 273.099 231.918 272.702C231.317 272.304 231.153 271.495 231.551 270.895C233.685 267.68 233.662 266.994 233.607 265.339C233.563 264.024 233.503 262.224 234.263 258.775L236.544 246.446C236.546 246.434 236.548 246.421 236.551 246.41L237.553 240.994C238.225 237.423 237.613 236.404 237.32 236.313C237.249 236.29 237.169 236.279 237.08 236.279Z" fill="#222433"/>
<path d="M247.375 257.99C246.851 257.99 246.356 257.673 246.156 257.155C245.897 256.483 246.232 255.728 246.904 255.469L254.312 252.615C254.985 252.355 255.741 252.69 256 253.362C256.26 254.034 255.925 254.789 255.252 255.048L247.844 257.902C247.69 257.962 247.531 257.99 247.375 257.99Z" fill="#222433"/>
<path d="M118.054 203.548C117.395 203.548 116.83 203.052 116.758 202.383C116.681 201.667 117.2 201.024 117.917 200.947L123.311 200.369L116.153 195.317C115.564 194.901 115.424 194.087 115.84 193.499C116.257 192.911 117.072 192.771 117.66 193.187L127.642 200.233C128.086 200.546 128.289 201.101 128.152 201.626C128.016 202.151 127.568 202.537 127.028 202.595L118.195 203.54C118.148 203.546 118.101 203.548 118.054 203.548Z" fill="#222433"/>
<path d="M151.368 203.322C151.697 201.976 150.871 200.619 149.523 200.291C148.176 199.962 146.817 200.787 146.488 202.133C146.159 203.479 146.985 204.836 148.333 205.165C149.68 205.493 151.039 204.668 151.368 203.322Z" fill="#222433"/>
<path d="M168.421 207.395C168.749 206.049 167.924 204.692 166.576 204.364C165.228 204.035 163.869 204.86 163.541 206.206C163.212 207.552 164.038 208.909 165.385 209.238C166.733 209.566 168.092 208.741 168.421 207.395Z" fill="#222433"/>
<path d="M164.515 453.694L163.529 452.839L167.446 448.331C176.221 438.275 178.767 424.268 174.091 411.774L152.683 354.575L153.906 354.118L175.314 411.317C180.158 424.26 177.521 438.77 168.431 449.187L164.515 453.694Z" fill="#2B292D"/>
<path d="M140.982 321.432L157.037 364.322L162.651 379.318L174.702 411.511C179.206 423.487 177.186 436.938 169.362 447.067C168.927 447.65 168.448 448.219 167.961 448.78L157.668 460.542L134.71 486.849L114.486 510.03L86.7055 541.866L30.9277 493.308L40.9378 481.833L61.1972 458.612L81.223 434.524L91.9747 405.514L83.2703 319.013" fill="white"/>
<path d="M86.7054 543.171C86.3908 543.171 86.0861 543.057 85.8476 542.849L30.0699 494.292C29.5263 493.819 29.4697 492.995 29.9433 492.452L60.2128 457.756L80.0757 433.863L90.6455 405.344L81.9711 319.143C81.8989 318.427 82.422 317.788 83.1397 317.715C83.8565 317.645 84.4971 318.166 84.5694 318.883L93.2738 405.383C93.2938 405.581 93.2681 405.78 93.1993 405.966L82.4472 434.977C82.3959 435.115 82.3215 435.244 82.2275 435.357L62.2017 459.446L32.7696 493.183L86.5788 540.027L156.683 459.686L166.978 447.922C167.364 447.478 167.867 446.888 168.316 446.288C175.93 436.429 177.856 423.606 173.48 411.97L139.759 321.889C139.507 321.214 139.85 320.463 140.525 320.211C141.199 319.959 141.953 320.301 142.205 320.976L175.925 411.055C180.621 423.541 178.554 437.302 170.396 447.864C169.909 448.516 169.365 449.155 168.947 449.635L158.651 461.401L87.6895 542.723C87.4618 542.984 87.1398 543.144 86.7946 543.168C86.7646 543.17 86.735 543.171 86.7054 543.171Z" fill="#222433"/>
<path d="M210.66 262.594C204.966 262.461 198.545 264.294 193.878 268.285L167.765 290.627C167.765 290.627 166.08 266.992 160.242 260.76C155.249 255.429 145.391 252.314 141.155 251.204L116.428 244.773C113.391 243.818 110.259 243.209 107.086 242.954C99.3413 242.333 84.8747 241.639 76.9384 245.374C68.4447 249.371 41.925 287.282 41.925 287.282C37.1376 293.367 33.2916 301.223 34.223 309.514L41.1865 371.286C42.1496 380.65 48.4011 388.194 56.6764 391.265" fill="#222433"/>
<path d="M56.6758 392.569C56.5248 392.569 56.3712 392.543 56.2215 392.487C47.1363 389.116 40.8774 381.043 39.8872 371.419L32.925 309.66C31.867 300.239 36.6584 291.873 40.8752 286.505C42.2366 284.56 67.7226 248.269 76.3813 244.194C82.4191 241.353 92.7847 240.498 107.19 241.654C110.445 241.915 113.675 242.543 116.788 243.519L141.484 249.941C145.635 251.029 155.86 254.173 161.195 259.869C166.161 265.171 168.219 281.595 168.845 287.986L193.029 267.294C197.604 263.382 204.208 261.137 210.691 261.29C211.412 261.307 211.983 261.905 211.966 262.624C211.949 263.344 211.34 263.913 210.63 263.898C204.772 263.757 198.826 265.77 194.728 269.275L168.615 291.617C168.24 291.937 167.717 292.019 167.262 291.83C166.807 291.64 166.498 291.211 166.463 290.719C166.002 284.273 163.816 266.484 159.288 261.65C154.282 256.305 143.889 253.268 140.823 252.465L116.099 246.035C116.077 246.029 116.056 246.023 116.035 246.017C113.099 245.093 110.052 244.5 106.981 244.254C89.6111 242.86 81.3584 244.734 77.4946 246.553C70.7852 249.71 50.316 277.563 42.9951 288.028C42.9812 288.048 42.9664 288.068 42.9516 288.087C39.0307 293.071 34.5593 300.808 35.5203 309.368L42.4838 371.14C43.3725 379.78 48.9846 387.019 57.1311 390.041C57.807 390.292 58.1512 391.043 57.9001 391.718C57.7043 392.244 57.2059 392.569 56.6758 392.569Z" fill="#222433"/>
<path d="M143.688 242.525L141.463 250.436C139.276 258.448 130.999 263.172 122.977 260.987C115.099 258.841 110.37 250.813 112.319 242.893L119.946 213.112" fill="white"/>
<path d="M126.935 262.823C125.514 262.823 124.07 262.636 122.635 262.245C114.005 259.894 108.918 251.257 111.052 242.581L118.682 212.788C118.861 212.09 119.571 211.67 120.271 211.848C120.969 212.026 121.391 212.736 121.212 213.434L113.585 243.216C111.795 250.494 116.071 257.753 123.323 259.729C130.637 261.72 138.211 257.398 140.205 250.093L142.433 242.172C142.628 241.479 143.348 241.075 144.043 241.27C144.737 241.464 145.142 242.184 144.947 242.878L142.722 250.789C140.741 258.04 134.13 262.823 126.935 262.823Z" fill="#222433"/>
<path d="M88.4664 373.582C88.9325 371.276 89.0626 368.862 88.8093 366.4C88.7928 366.24 88.7749 366.081 88.7553 365.922L83.3965 318.528L155.818 322.18" fill="white"/>
<path d="M88.4672 374.886C88.3815 374.886 88.2949 374.877 88.2074 374.86C87.5006 374.717 87.0432 374.029 87.1859 373.323C87.636 371.098 87.7448 368.814 87.5102 366.533C87.4945 366.384 87.478 366.233 87.4593 366.082L82.0991 318.674C82.056 318.294 82.1827 317.914 82.4451 317.635C82.7075 317.356 83.0779 317.209 83.4622 317.226L155.884 320.878C156.604 320.914 157.158 321.527 157.122 322.246C157.086 322.965 156.471 323.522 155.753 323.482L84.8667 319.908L90.0527 365.776C90.0719 365.929 90.0906 366.097 90.108 366.265C90.3696 368.809 90.2477 371.356 89.7459 373.839C89.621 374.459 89.0761 374.886 88.4672 374.886Z" fill="#222433"/>
<path d="M155.819 323.484C155.795 323.484 155.77 323.484 155.746 323.482C155.026 323.442 154.474 322.827 154.515 322.108C154.829 316.488 154.001 310.961 152.056 305.678C149.432 298.387 148.727 290.505 150.013 282.874C150.133 282.164 150.808 281.685 151.518 281.804C152.229 281.924 152.708 282.597 152.589 283.307C151.376 290.498 152.041 297.926 154.51 304.788C156.577 310.397 157.457 316.277 157.122 322.254C157.083 322.947 156.507 323.484 155.819 323.484Z" fill="#222433"/>
<path d="M83.3958 319.832C83.179 319.832 82.9592 319.778 82.7564 319.664C82.128 319.311 81.9051 318.516 82.259 317.888L100.847 284.904C101.201 284.277 101.997 284.054 102.625 284.407C103.254 284.76 103.477 285.555 103.123 286.183L84.5347 319.168C84.2953 319.593 83.8523 319.832 83.3958 319.832Z" fill="#222433"/>
<path d="M66.0152 357.211C52.2362 358.233 42.6091 375.25 52.5234 386.269C52.6583 386.421 52.7933 386.565 52.9282 386.704C57.4806 391.442 61.2757 396.984 59.1518 406.356C57.6547 412.963 54.3905 422.63 60.6968 423.825C65.049 424.651 69.3447 413.506 72.7916 405.404C73.1876 418.062 73.7273 434.636 79.4635 434.792C85.1997 434.949 86.6664 426.46 86.031 410.051C89.887 427.92 88.7119 434.284 94.2392 433.784C103.379 432.954 97.6252 395.902 92.2111 383.631C92.2111 383.631 90.9925 380.679 87.1582 369.834C83.2586 358.75 73.2486 356.655 66.0152 357.211Z" fill="white"/>
<path d="M79.6195 436.099C79.5559 436.099 79.4924 436.098 79.428 436.096C73.7118 435.94 72.32 425.618 71.7006 411.323C68.5579 418.605 65.2385 425.174 61.174 425.175C60.9359 425.175 60.6966 425.153 60.4533 425.107C58.8225 424.797 57.5826 423.999 56.7674 422.734C54.6248 419.407 56.041 413.626 57.2905 408.526C57.4986 407.676 57.7009 406.851 57.8785 406.068C59.7547 397.789 56.8801 392.7 51.9861 387.607C51.8425 387.459 51.6945 387.301 51.5461 387.134C47.0059 382.088 45.9026 375.453 48.5256 368.938C51.4394 361.701 58.4291 356.466 65.9183 355.911C71.1105 355.513 83.6857 356.031 88.39 369.402C92.1568 380.057 93.4059 383.104 93.4185 383.134C98.0584 393.649 103.33 423.737 98.2312 432.38C97.0195 434.433 95.4562 434.983 94.3577 435.083C89.3527 435.534 88.5358 431.548 87.2066 423.574C86.7331 429.103 85.6137 432.521 83.7671 434.386C82.6416 435.523 81.2472 436.099 79.6195 436.099ZM72.7909 404.099C72.8709 404.099 72.9515 404.107 73.032 404.122C73.6343 404.235 74.0774 404.751 74.0965 405.363C74.285 411.384 74.5196 418.877 75.4148 424.584C76.6204 432.268 78.4909 433.461 79.4989 433.489C80.4886 433.524 81.2507 433.218 81.9096 432.553C85.0893 429.341 85.0397 418.201 84.7263 410.101C84.6998 409.425 85.1955 408.842 85.8675 408.757C86.539 408.674 87.1644 409.115 87.3072 409.776C88.4113 414.892 89.1029 419.058 89.6591 422.406C91.1153 431.174 91.5784 432.719 94.121 432.486C94.386 432.462 95.1946 432.388 95.9807 431.056C100.354 423.644 95.8988 395.225 91.0157 384.157C90.953 384.007 89.7283 381.022 85.9262 370.269C81.8199 358.597 70.7036 358.157 66.1146 358.512C66.1133 358.512 66.112 358.512 66.1111 358.512C59.592 358.995 53.4985 363.576 50.9476 369.912C48.7102 375.468 49.6385 381.113 53.4937 385.398C53.6216 385.542 53.7431 385.671 53.8649 385.796C58.6092 390.734 62.6842 396.674 60.4245 406.644C60.2439 407.441 60.0381 408.281 59.8261 409.146C58.7572 413.509 57.4272 418.939 58.9626 421.323C59.3865 421.982 60.0146 422.37 60.9394 422.545C61.0191 422.56 61.0996 422.568 61.181 422.568C64.1417 422.568 68.2694 412.769 70.7627 406.85C71.043 406.184 71.3185 405.53 71.5888 404.894C71.7977 404.406 72.2756 404.099 72.7909 404.099ZM66.0154 357.211H66.0197H66.0154Z" fill="#222433"/>
<path d="M119.994 214.225C119.974 214.225 119.953 214.224 119.933 214.223C119.011 214.181 118.086 214.048 117.182 213.827C113.46 212.921 110.314 210.62 108.324 207.35C106.334 204.08 105.739 200.232 106.647 196.515C107.555 192.797 109.858 189.655 113.132 187.668C116.406 185.681 120.259 185.086 123.981 185.993C127.703 186.9 130.849 189.2 132.839 192.47C134.829 195.74 135.424 199.588 134.516 203.306C134.345 204.005 133.639 204.433 132.938 204.264C132.238 204.093 131.809 203.387 131.979 202.688C132.722 199.647 132.235 196.5 130.607 193.825C128.98 191.15 126.407 189.269 123.362 188.527C120.318 187.785 117.167 188.272 114.488 189.897C111.81 191.522 109.927 194.092 109.184 197.133C108.441 200.174 108.928 203.321 110.556 205.996C112.183 208.67 114.756 210.552 117.8 211.294C118.541 211.475 119.299 211.584 120.053 211.618C120.773 211.651 121.33 212.262 121.296 212.981C121.265 213.68 120.687 214.225 119.994 214.225Z" fill="#222433"/>
<path d="M143.152 243.771C141.184 243.771 139.201 243.538 137.238 243.067C130.713 241.501 125.188 237.492 121.683 231.776C118.177 226.061 117.11 219.324 118.677 212.807C118.846 212.107 119.551 211.675 120.252 211.844C120.953 212.012 121.385 212.716 121.217 213.416C119.812 219.256 120.768 225.293 123.91 230.414C127.051 235.535 132.001 239.128 137.848 240.531C143.696 241.934 149.739 240.979 154.867 237.841C159.995 234.704 163.592 229.76 164.997 223.92C165.057 223.669 165.113 223.416 165.165 223.16C163.706 222.125 159.935 219.617 155.981 218.339C152.177 217.111 142.376 215.215 138.03 217.581C137.683 217.77 137.269 217.792 136.905 217.64C136.541 217.489 136.264 217.181 136.153 216.803L132.069 202.886C131.866 202.195 132.262 201.47 132.954 201.268C133.647 201.065 134.372 201.461 134.575 202.152L138.244 214.656C144.08 212.667 153.638 214.841 156.785 215.857C162.263 217.627 167.19 221.4 167.397 221.56C167.778 221.854 167.966 222.333 167.887 222.807C167.79 223.383 167.672 223.962 167.536 224.529C165.968 231.046 161.954 236.563 156.231 240.065C152.229 242.513 147.728 243.771 143.152 243.771Z" fill="#222433"/>
<path d="M149.528 227.432C147.193 227.432 144.902 226.304 143.515 224.223C143.375 224.014 143.246 223.795 143.13 223.573L143.005 223.338C142.669 222.701 142.913 221.912 143.552 221.576C144.19 221.24 144.979 221.484 145.315 222.122L145.442 222.361C145.517 222.505 145.6 222.644 145.689 222.777C147.095 224.886 149.956 225.46 152.067 224.056L152.977 223.446C153.576 223.045 154.387 223.204 154.789 223.802C155.191 224.4 155.031 225.21 154.433 225.612L153.519 226.224C152.291 227.041 150.901 227.432 149.528 227.432Z" fill="#222433"/>
<path d="M158.762 368.933L141.154 321.621L158.762 368.933Z" fill="white"/>
<path d="M158.763 370.237C158.233 370.237 157.735 369.912 157.539 369.387L139.931 322.076C139.68 321.401 140.024 320.65 140.7 320.399C141.376 320.148 142.127 320.492 142.378 321.167L159.987 368.478C160.238 369.153 159.893 369.904 159.217 370.155C159.068 370.211 158.914 370.237 158.763 370.237Z" fill="#222433"/>
</g>
<defs>
<clipPath id="clip0_1205_19190">
<rect width="383" height="420" fill="white" transform="translate(0 160)"/>
</clipPath>
</defs>
</svg>
